<svg width="88" height="20" viewBox="0 0 88 20" fill="none" xmlns="http://www.w3.org/2000/svg">
<path d="M-0.0079999 19V2.2H7.264C8.768 2.2 10.064 2.448 11.152 2.944C12.24 3.424 13.08 4.12 13.672 5.032C14.264 5.944 14.56 7.032 14.56 8.296C14.56 9.544 14.264 10.624 13.672 11.536C13.08 12.432 12.24 13.12 11.152 13.6C10.064 14.08 8.768 14.32 7.264 14.32H2.152L3.88 12.616V19H-0.0079999ZM10.672 19L6.472 12.904H10.624L14.872 19H10.672ZM3.88 13.048L2.152 11.224H7.048C8.248 11.224 9.144 10.968 9.736 10.456C10.328 9.928 10.624 9.208 10.624 8.296C10.624 7.368 10.328 6.648 9.736 6.136C9.144 5.624 8.248 5.368 7.048 5.368H2.152L3.88 3.52V13.048ZM23.8844 19.192C22.4124 19.192 21.1164 18.904 19.9964 18.328C18.8924 17.752 18.0364 16.968 17.4284 15.976C16.8204 14.968 16.5164 13.824 16.5164 12.544C16.5164 11.248 16.8124 10.104 17.4044 9.112C18.0124 8.104 18.8364 7.32 19.8764 6.76C20.9164 6.184 22.0924 5.896 23.4044 5.896C24.6684 5.896 25.8044 6.168 26.8124 6.712C27.8364 7.24 28.6444 8.008 29.2364 9.016C29.8284 10.008 30.1244 11.2 30.1244 12.592C30.1244 12.736 30.1164 12.904 30.1004 13.096C30.0844 13.272 30.0684 13.44 30.0524 13.6H19.5644V11.416H28.0844L26.6444 12.064C26.6444 11.392 26.5084 10.808 26.2364 10.312C25.9644 9.816 25.5884 9.432 25.1084 9.16C24.6284 8.872 24.0684 8.728 23.4284 8.728C22.7884 8.728 22.2204 8.872 21.7244 9.16C21.2444 9.432 20.8684 9.824 20.5964 10.336C20.3244 10.832 20.1884 11.424 20.1884 12.112V12.688C20.1884 13.392 20.3404 14.016 20.6444 14.56C20.9644 15.088 21.4044 15.496 21.9644 15.784C22.5404 16.056 23.2124 16.192 23.9804 16.192C24.6684 16.192 25.2684 16.088 25.7804 15.88C26.3084 15.672 26.7884 15.36 27.2204 14.944L29.2124 17.104C28.6204 17.776 27.8764 18.296 26.9804 18.664C26.0844 19.016 25.0524 19.192 23.8844 19.192ZM32.7171 19V1.192H36.4611V19H32.7171ZM43.5398 19L38.1158 6.088H41.9798L46.4918 17.2H44.5718L49.2518 6.088H52.8518L47.4038 19H43.5398ZM54.4796 19V6.088H58.2236V19H54.4796ZM56.3516 4.288C55.6636 4.288 55.1036 4.088 54.6716 3.688C54.2396 3.288 54.0236 2.792 54.0236 2.2C54.0236 1.608 54.2396 1.112 54.6716 0.711999C55.1036 0.311999 55.6636 0.111999 56.3516 0.111999C57.0396 0.111999 57.5996 0.303999 58.0316 0.688C58.4636 1.056 58.6796 1.536 58.6796 2.128C58.6796 2.752 58.4636 3.272 58.0316 3.688C57.6156 4.088 57.0556 4.288 56.3516 4.288ZM66.1423 19.192C65.0383 19.192 63.9743 19.064 62.9503 18.808C61.9423 18.536 61.1423 18.2 60.5503 17.8L61.7983 15.112C62.3903 15.48 63.0863 15.784 63.8863 16.024C64.7023 16.248 65.5023 16.36 66.2863 16.36C67.1503 16.36 67.7583 16.256 68.1103 16.048C68.4783 15.84 68.6623 15.552 68.6623 15.184C68.6623 14.88 68.5183 14.656 68.2303 14.512C67.9583 14.352 67.5903 14.232 67.1263 14.152C66.6623 14.072 66.1503 13.992 65.5903 13.912C65.0463 13.832 64.4943 13.728 63.9343 13.6C63.3743 13.456 62.8623 13.248 62.3983 12.976C61.9343 12.704 61.5583 12.336 61.2703 11.872C60.9983 11.408 60.8623 10.808 60.8623 10.072C60.8623 9.256 61.0943 8.536 61.5583 7.912C62.0383 7.288 62.7263 6.8 63.6223 6.448C64.5183 6.08 65.5903 5.896 66.8383 5.896C67.7183 5.896 68.6143 5.992 69.5263 6.184C70.4383 6.376 71.1983 6.656 71.8063 7.024L70.5583 9.688C69.9343 9.32 69.3023 9.072 68.6623 8.944C68.0383 8.8 67.4303 8.728 66.8383 8.728C66.0063 8.728 65.3983 8.84 65.0143 9.064C64.6303 9.288 64.4383 9.576 64.4383 9.928C64.4383 10.248 64.5743 10.488 64.8463 10.648C65.1343 10.808 65.5103 10.936 65.9743 11.032C66.4383 11.128 66.9423 11.216 67.4863 11.296C68.0463 11.36 68.6063 11.464 69.1663 11.608C69.7263 11.752 70.2303 11.96 70.6783 12.232C71.1423 12.488 71.5183 12.848 71.8063 13.312C72.0943 13.76 72.2383 14.352 72.2383 15.088C72.2383 15.888 71.9983 16.6 71.5183 17.224C71.0383 17.832 70.3423 18.312 69.4303 18.664C68.5343 19.016 67.4383 19.192 66.1423 19.192ZM81.0563 19.192C79.5843 19.192 78.2883 18.904 77.1683 18.328C76.0643 17.752 75.2083 16.968 74.6003 15.976C73.9923 14.968 73.6883 13.824 73.6883 12.544C73.6883 11.248 73.9843 10.104 74.5763 9.112C75.1843 8.104 76.0083 7.32 77.0483 6.76C78.0883 6.184 79.2643 5.896 80.5763 5.896C81.8403 5.896 82.9763 6.168 83.9843 6.712C85.0083 7.24 85.8163 8.008 86.4083 9.016C87.0003 10.008 87.2963 11.2 87.2963 12.592C87.2963 12.736 87.2883 12.904 87.2723 13.096C87.2563 13.272 87.2403 13.44 87.2243 13.6H76.7363V11.416H85.2563L83.8163 12.064C83.8163 11.392 83.6803 10.808 83.4083 10.312C83.1363 9.816 82.7603 9.432 82.2803 9.16C81.8003 8.872 81.2403 8.728 80.6003 8.728C79.9603 8.728 79.3923 8.872 78.8963 9.16C78.4163 9.432 78.0403 9.824 77.7683 10.336C77.4963 10.832 77.3603 11.424 77.3603 12.112V12.688C77.3603 13.392 77.5123 14.016 77.8163 14.56C78.1363 15.088 78.5763 15.496 79.1363 15.784C79.7123 16.056 80.3843 16.192 81.1523 16.192C81.8403 16.192 82.4403 16.088 82.9523 15.88C83.4803 15.672 83.9603 15.36 84.3923 14.944L86.3843 17.104C85.7923 17.776 85.0483 18.296 84.1523 18.664C83.2563 19.016 82.2243 19.192 81.0563 19.192Z" fill="#252B42"/>
</svg>
