<svg xmlns="http://www.w3.org/2000/svg" viewBox="0 0 72.85 72.85"><defs><style>.cls-1{fill:none;stroke:#000;stroke-linecap:round;stroke-linejoin:round;stroke-width:3px;}</style></defs><title>Asset 17</title><g id="Layer_2" data-name="Layer 2"><g id="Layer_2-2" data-name="Layer 2"><path class="cls-1" d="M58.42,33.3H51A11.45,11.45,0,0,1,39.55,21.85V14.44a3.13,3.13,0,0,0-3.12-3.13h0a3.13,3.13,0,0,0-3.13,3.13v7.41A11.44,11.44,0,0,1,21.85,33.3H14.44a3.13,3.13,0,0,0-3.13,3.13h0a3.13,3.13,0,0,0,3.13,3.12h7.41A11.45,11.45,0,0,1,33.3,51v7.42a3.13,3.13,0,0,0,3.13,3.12h0a3.12,3.12,0,0,0,3.12-3.12V51A11.45,11.45,0,0,1,51,39.55h7.42a3.12,3.12,0,0,0,3.12-3.12h0A3.13,3.13,0,0,0,58.42,33.3Z"/><circle class="cls-1" cx="36.43" cy="36.43" r="3.68"/><path class="cls-1" d="M33.3,20.62a9.82,9.82,0,1,1,6.25,0"/><path class="cls-1" d="M39.55,52.24a9.82,9.82,0,1,1-6.25,0"/><path class="cls-1" d="M52.24,33.3a9.82,9.82,0,1,1,0,6.25"/><path class="cls-1" d="M20.62,39.55a9.82,9.82,0,1,1,0-6.25"/></g></g></svg>