<svg xmlns="http://www.w3.org/2000/svg" viewBox="0 0 63.93 57.59"><defs><style>.cls-1{fill:none;}.cls-1,.cls-2,.cls-3{stroke:#000;stroke-width:3px;}.cls-1,.cls-3{stroke-miterlimit:10;}.cls-2,.cls-3{fill:#fff;}.cls-2{stroke-linejoin:round;}</style></defs><title>Asset 16</title><g id="Layer_2" data-name="Layer 2"><g id="Layer_2-2" data-name="Layer 2"><path class="cls-1" d="M4.52,33.39H50.16a3,3,0,0,0,3-3l4.62-12.92L62.43,4.52a3,3,0,0,0-3-3H13.77a3,3,0,0,0-3,3L1.5,30.36A3,3,0,0,0,4.52,33.39Z"/><rect class="cls-2" x="25.96" y="33.39" width="7.08" height="16.43" transform="translate(59 83.2) rotate(-180)"/><line class="cls-3" x1="46.62" y1="1.5" x2="34.7" y2="33.39"/><line class="cls-3" x1="29.23" y1="1.5" x2="17.3" y2="33.39"/><line class="cls-3" x1="6.12" y1="17.44" x2="57.81" y2="17.44"/><rect class="cls-2" x="11.96" y="49.82" width="34.54" height="6.28" rx="1.51" transform="translate(58.46 105.91) rotate(-180)"/></g></g></svg>