<svg xmlns="http://www.w3.org/2000/svg" viewBox="0 0 60.66 71.76"><defs><style>.cls-1,.cls-2,.cls-3{fill:none;stroke:#000;stroke-width:3px;}.cls-1{stroke-linecap:round;}.cls-1,.cls-3{stroke-linejoin:round;}.cls-2{stroke-miterlimit:10;}</style></defs><title>Asset 12</title><g id="Layer_2" data-name="Layer 2"><g id="Layer_2-2" data-name="Layer 2"><path class="cls-1" d="M51,41.2a8.57,8.57,0,0,0,0-10.64"/><path class="cls-1" d="M56.67,43.49a12.89,12.89,0,0,0,0-15.23"/><path class="cls-1" d="M9.63,41.2a8.57,8.57,0,0,1,0-10.64"/><path class="cls-1" d="M4,43.49A12.89,12.89,0,0,1,4,28.26"/><rect class="cls-2" x="16.71" y="19.22" width="27.24" height="33.32" rx="5.46"/><polygon class="cls-3" points="39.34 19.22 21.32 19.22 23.79 1.5 36.87 1.5 39.34 19.22"/><line class="cls-3" x1="22.08" y1="13.76" x2="38.58" y2="13.76"/><line class="cls-1" x1="29.14" y1="8.02" x2="31.52" y2="8.02"/><polygon class="cls-3" points="21.32 52.54 39.34 52.54 36.87 70.26 23.79 70.26 21.32 52.54"/><line class="cls-3" x1="38.58" y1="58" x2="22.08" y2="58"/><line class="cls-1" x1="31.52" y1="63.73" x2="29.14" y2="63.73"/></g></g></svg>