<svg xmlns="http://www.w3.org/2000/svg" viewBox="0 0 37.93 89.33"><defs><style>.cls-1{fill:none;stroke:#000;stroke-linecap:round;stroke-linejoin:round;stroke-width:3px;}</style></defs><title>Asset 24</title><g id="Layer_2" data-name="Layer 2"><g id="Layer_2-2" data-name="Layer 2"><path class="cls-1" d="M25.53,11.06a10.63,10.63,0,0,0-13.13,0"/><path class="cls-1" d="M28.36,4.57a15.91,15.91,0,0,0-18.79,0"/><path class="cls-1" d="M4.82,37.52H33.11a0,0,0,0,1,0,0V53.38a8.89,8.89,0,0,1-8.89,8.89H13.71a8.89,8.89,0,0,1-8.89-8.89V37.52A0,0,0,0,1,4.82,37.52Z"/><rect class="cls-1" x="1.5" y="30.77" width="34.93" height="6.75" rx="2.95"/><path class="cls-1" d="M11.52,17.31h0a2.62,2.62,0,0,1,2.62,2.62V30.77a0,0,0,0,1,0,0H8.89a0,0,0,0,1,0,0V19.93A2.62,2.62,0,0,1,11.52,17.31Z"/><path class="cls-1" d="M26.41,17.31h0A2.62,2.62,0,0,1,29,19.93V30.77a0,0,0,0,1,0,0H23.79a0,0,0,0,1,0,0V19.93A2.62,2.62,0,0,1,26.41,17.31Z"/><path class="cls-1" d="M12.62,62.27h12.7a0,0,0,0,1,0,0V66.6a2.75,2.75,0,0,1-2.75,2.75H15.36a2.75,2.75,0,0,1-2.75-2.75V62.27A0,0,0,0,1,12.62,62.27Z"/><path class="cls-1" d="M15.24,69.34h7.45a0,0,0,0,1,0,0V84.1A3.73,3.73,0,0,1,19,87.83h0a3.73,3.73,0,0,1-3.73-3.73V69.34A0,0,0,0,1,15.24,69.34Z"/><circle class="cls-1" cx="18.96" cy="49.9" r="4.5"/></g></g></svg>