<svg xmlns="http://www.w3.org/2000/svg" viewBox="0 0 41.95 66.07"><defs><style>.cls-1,.cls-2{fill:none;stroke:#000;stroke-linejoin:round;stroke-width:3px;}.cls-2{stroke-linecap:round;}</style></defs><title>Asset 3</title><g id="Layer_2" data-name="Layer 2"><g id="Layer_2-2" data-name="Layer 2"><rect class="cls-1" x="1.5" y="1.5" width="38.95" height="63.07" rx="5.93"/><polygon class="cls-1" points="27.4 6.68 14.55 6.68 12.78 1.5 29.18 1.5 27.4 6.68"/><line class="cls-2" x1="15.99" y1="58.22" x2="25.47" y2="58.22"/><path class="cls-1" d="M24.72,31.58a3.91,3.91,0,0,0-1,.13,4,4,0,0,0,.15-1.05,4.13,4.13,0,1,0-8,1.41A4.12,4.12,0,1,0,14,39.83H24.72a4.13,4.13,0,1,0,0-8.25Z"/><path class="cls-1" d="M22.24,27.36a4.71,4.71,0,1,1,5.47,5.5"/></g></g></svg>