<svg xmlns="http://www.w3.org/2000/svg" viewBox="0 0 79.31 68.11"><defs><style>.cls-1{fill:none;stroke:#000;stroke-linecap:round;stroke-linejoin:round;stroke-width:3px;}</style></defs><title>Asset 23</title><g id="Layer_2" data-name="Layer 2"><g id="Layer_2-2" data-name="Layer 2"><path class="cls-1" d="M4.82,38.68H27.75a0,0,0,0,1,0,0V62.45a4.15,4.15,0,0,1-4.15,4.15H9a4.15,4.15,0,0,1-4.15-4.15V38.68A0,0,0,0,1,4.82,38.68Z"/><path class="cls-1" d="M3.86,32.2H28.71a2.36,2.36,0,0,1,2.36,2.36v4.13a0,0,0,0,1,0,0H1.5a0,0,0,0,1,0,0V34.55A2.36,2.36,0,0,1,3.86,32.2Z"/><line class="cls-1" x1="12.39" y1="46.34" x2="12.39" y2="57.03"/><line class="cls-1" x1="20.18" y1="46.34" x2="20.18" y2="57.03"/><path class="cls-1" d="M12.38,26.41h7.81a1.47,1.47,0,0,1,1.47,1.47V32.2a0,0,0,0,1,0,0H10.91a0,0,0,0,1,0,0V27.88A1.47,1.47,0,0,1,12.38,26.41Z"/><path class="cls-1" d="M51.56,38.68H74.49a0,0,0,0,1,0,0V62.45a4.15,4.15,0,0,1-4.15,4.15H55.71a4.15,4.15,0,0,1-4.15-4.15V38.68A0,0,0,0,1,51.56,38.68Z"/><path class="cls-1" d="M50.6,32.2H75.45a2.36,2.36,0,0,1,2.36,2.36v4.13a0,0,0,0,1,0,0H48.24a0,0,0,0,1,0,0V34.55A2.36,2.36,0,0,1,50.6,32.2Z"/><line class="cls-1" x1="59.13" y1="46.34" x2="59.13" y2="57.03"/><line class="cls-1" x1="66.92" y1="46.34" x2="66.92" y2="57.03"/><path class="cls-1" d="M59.12,26.41h7.81a1.47,1.47,0,0,1,1.47,1.47V32.2a0,0,0,0,1,0,0H57.65a0,0,0,0,1,0,0V27.88A1.47,1.47,0,0,1,59.12,26.41Z"/><path class="cls-1" d="M33.35,15.26V10.79a4.7,4.7,0,0,1,4.71-4.7H48.24"/><polyline class="cls-1" points="44.65 10.68 48.24 6.09 44.65 1.5"/><path class="cls-1" d="M48.24,15v4.46a4.7,4.7,0,0,1-4.71,4.7H33.35"/><polyline class="cls-1" points="36.94 19.59 33.35 24.18 36.94 28.77"/></g></g></svg>