<svg xmlns="http://www.w3.org/2000/svg" viewBox="0 0 93.11 59.08"><defs><style>.cls-1,.cls-2{fill:none;stroke:#000;stroke-linejoin:round;stroke-width:3px;}.cls-2{stroke-linecap:round;}</style></defs><title>Asset 32</title><g id="Layer_2" data-name="Layer 2"><g id="Layer_2-2" data-name="Layer 2"><path class="cls-1" d="M76.77,21.58H16.34a7.55,7.55,0,0,0-7.55,7.56V50a7.55,7.55,0,0,0,7.55,7.55H31.18a4.76,4.76,0,0,0,4.73-4.2h0a4.78,4.78,0,0,1,4.74-4.21H52.46a4.78,4.78,0,0,1,4.74,4.21h0a4.76,4.76,0,0,0,4.73,4.2H76.77A7.55,7.55,0,0,0,84.32,50V29.14A7.55,7.55,0,0,0,76.77,21.58Z"/><line class="cls-1" x1="8.79" y1="29.14" x2="84.32" y2="29.14"/><line class="cls-1" x1="8.79" y1="50.03" x2="37.93" y2="50.03"/><line class="cls-1" x1="84.32" y1="50.03" x2="55.18" y2="50.03"/><polyline class="cls-2" points="44.12 34.68 44.12 41.3 40.53 44.48 36.94 41.3 36.94 34.68"/><path class="cls-2" d="M50.2,34.68H54a2.12,2.12,0,0,1,2.12,2.12v0A2.12,2.12,0,0,1,54,38.92H50.2a0,0,0,0,1,0,0V34.68A0,0,0,0,1,50.2,34.68Z"/><line class="cls-2" x1="50.2" y1="38.92" x2="50.2" y2="44.48"/><path class="cls-2" d="M52.28,38.92H53a3.15,3.15,0,0,1,3.15,3.15V43.8"/><path class="cls-2" d="M84.32,32.14H88.9a2.71,2.71,0,0,1,2.71,2.71v9.48A2.71,2.71,0,0,1,88.9,47H84.32a0,0,0,0,1,0,0V32.14A0,0,0,0,1,84.32,32.14Z"/><path class="cls-2" d="M4.21,32.14H8.79a0,0,0,0,1,0,0V47a0,0,0,0,1,0,0H4.21A2.71,2.71,0,0,1,1.5,44.32V34.84A2.71,2.71,0,0,1,4.21,32.14Z"/><path class="cls-2" d="M42.81,13.66a5.31,5.31,0,0,1,7.44,0"/><path class="cls-2" d="M40,9.06a10.64,10.64,0,0,1,13.14,0"/><path class="cls-2" d="M37.16,4.57A15.91,15.91,0,0,1,56,4.57"/></g></g></svg>