<svg xmlns="http://www.w3.org/2000/svg" viewBox="0 0 60.62 68.97"><defs><style>.cls-1,.cls-2{fill:none;stroke:#000;stroke-linejoin:round;stroke-width:3px;}.cls-1{stroke-linecap:round;}</style></defs><title>Asset 9</title><g id="Layer_2" data-name="Layer 2"><g id="Layer_2-2" data-name="Layer 2"><path class="cls-1" d="M26.37,14.33a5.57,5.57,0,0,1,7.84-.05"/><path class="cls-1" d="M23.38,9.48a11.21,11.21,0,0,1,13.86,0"/><path class="cls-1" d="M20.4,4.74a16.78,16.78,0,0,1,19.82,0"/><circle class="cls-2" cx="30.31" cy="49.17" r="12.31"/><circle class="cls-2" cx="30.31" cy="49.17" r="7"/><polyline class="cls-2" points="41.45 43.91 59.12 43.91 59.12 54.42 41.45 54.42"/><polyline class="cls-2" points="19.17 54.42 1.5 54.42 1.5 43.91 19.17 43.91"/><path class="cls-1" d="M53.64,30.86H41.41a2,2,0,0,1-1.94-1.51l-1.21-4.73a2,2,0,0,0-1.95-1.51h-12a2,2,0,0,0-1.95,1.51l-1.21,4.73a2,2,0,0,1-1.94,1.51H7A5.48,5.48,0,0,0,1.5,36.34V62A5.48,5.48,0,0,0,7,67.47H53.64A5.48,5.48,0,0,0,59.12,62V36.34A5.48,5.48,0,0,0,53.64,30.86Z"/></g></g></svg>