<svg xmlns="http://www.w3.org/2000/svg" viewBox="0 0 65.04 73.85"><defs><style>.cls-1{fill:none;stroke:#000;stroke-linecap:round;stroke-linejoin:round;stroke-width:3px;}</style></defs><title>Asset 26</title><g id="Layer_2" data-name="Layer 2"><g id="Layer_2-2" data-name="Layer 2"><path class="cls-1" d="M36.9,16.38a6,6,0,0,0-8.71-.06"/><path class="cls-1" d="M40.21,10.75a12,12,0,0,0-15.39,0"/><path class="cls-1" d="M43.53,5.26a18,18,0,0,0-22,0"/><rect class="cls-1" x="1.5" y="23.12" width="62.04" height="27.66" rx="5.14"/><rect class="cls-1" x="12.67" y="39.05" width="39.7" height="11.73"/><circle class="cls-1" cx="11.09" cy="31.28" r="3.16"/><path class="cls-1" d="M18.89,60.78c-5,7,5,4.28,0,11.57"/><path class="cls-1" d="M28,60.78c-5,7,5,4.28,0,11.57"/><path class="cls-1" d="M37.05,60.78c-5,7,5,4.28,0,11.57"/><path class="cls-1" d="M46.13,60.78c-5,7,5,4.28,0,11.57"/><line class="cls-1" x1="12.67" y1="44.91" x2="52.37" y2="44.91"/></g></g></svg>