<svg xmlns="http://www.w3.org/2000/svg" viewBox="0 0 64.75 66.96"><defs><style>.cls-1{fill:none;stroke:#000;stroke-linecap:round;stroke-linejoin:round;stroke-width:3px;}</style></defs><title>Asset 27</title><g id="Layer_2" data-name="Layer 2"><g id="Layer_2-2" data-name="Layer 2"><path class="cls-1" d="M36.78,27a6,6,0,0,0-8.71-.05"/><path class="cls-1" d="M40.09,21.34a12,12,0,0,0-15.39,0"/><path class="cls-1" d="M43.41,15.84a18,18,0,0,0-22,0"/><rect class="cls-1" x="1.5" y="38.34" width="61.75" height="19.65" rx="4.58"/><rect class="cls-1" x="8.53" y="44.73" width="26.97" height="6.86"/><path class="cls-1" d="M6.44,58H58.3a0,0,0,0,1,0,0v4.57a2.91,2.91,0,0,1-2.91,2.91h-46a2.91,2.91,0,0,1-2.91-2.91V58A0,0,0,0,1,6.44,58Z"/><rect class="cls-1" x="6.44" y="31.47" width="11.13" height="6.87"/><path class="cls-1" d="M12,1.5h0a3.22,3.22,0,0,1,3.22,3.22V31.47a0,0,0,0,1,0,0H8.78a0,0,0,0,1,0,0V4.72A3.22,3.22,0,0,1,12,1.5Z"/><rect class="cls-1" x="47.17" y="31.47" width="11.13" height="6.87"/><path class="cls-1" d="M52.74,1.5h0A3.22,3.22,0,0,1,56,4.72V31.47a0,0,0,0,1,0,0H49.51a0,0,0,0,1,0,0V4.72A3.22,3.22,0,0,1,52.74,1.5Z"/></g></g></svg>