<svg xmlns="http://www.w3.org/2000/svg" viewBox="0 0 72.11 72.11"><defs><style>.cls-1,.cls-2{fill:none;stroke:#000;stroke-linejoin:round;stroke-width:3px;}.cls-2{stroke-linecap:round;}</style></defs><title>Asset 7</title><g id="Layer_2" data-name="Layer 2"><g id="Layer_2-2" data-name="Layer 2"><path class="cls-1" d="M56.53,64.44l7.91-7.91-3.75-5.16a28.62,28.62,0,0,0,3.61-8.73l6.31-1V30.46l-6.31-1a28.67,28.67,0,0,0-3.61-8.72l3.75-5.17-7.91-7.9-5.16,3.75a28.62,28.62,0,0,0-8.73-3.61l-1-6.31H30.46l-1,6.31a28.67,28.67,0,0,0-8.72,3.61L15.57,7.67l-7.9,7.9,3.75,5.17a28.67,28.67,0,0,0-3.61,8.72l-6.31,1V41.64l6.31,1a28.62,28.62,0,0,0,3.61,8.73L7.67,56.53l7.9,7.91,5.17-3.75a28.93,28.93,0,0,0,8.72,3.61l1,6.31H41.64l1-6.31a28.88,28.88,0,0,0,8.73-3.61Z"/><circle class="cls-1" cx="36.05" cy="36.05" r="21.7"/><path class="cls-2" d="M31.14,43.35a7,7,0,0,1,9.83,0"/><path class="cls-2" d="M26.7,38.91a13.22,13.22,0,0,1,18.71,0"/><path class="cls-2" d="M22.26,34.47a19.51,19.51,0,0,1,27.59,0"/></g></g></svg>