<svg xmlns="http://www.w3.org/2000/svg" viewBox="0 0 65.18 71.74"><defs><style>.cls-1,.cls-2{fill:none;stroke:#000;stroke-linejoin:round;stroke-width:3px;}.cls-2{stroke-linecap:round;}</style></defs><title>Asset 4</title><g id="Layer_2" data-name="Layer 2"><g id="Layer_2-2" data-name="Layer 2"><path class="cls-1" d="M30.28,2.2,3.33,20.34A4.13,4.13,0,0,0,1.5,23.77h0A4.14,4.14,0,0,0,8,27.2L32.59,10.63,57.23,27.2a4.14,4.14,0,0,0,6.45-3.43h0a4.13,4.13,0,0,0-1.83-3.43L34.9,2.2A4.17,4.17,0,0,0,30.28,2.2Z"/><polyline class="cls-1" points="56.23 26.53 56.23 63.61 8.95 63.61 8.95 26.53"/><path class="cls-2" d="M25.34,28.32a10.43,10.43,0,0,1,5.86-1.79h0A10.48,10.48,0,0,1,41.68,37v6.64"/><path class="cls-2" d="M36.24,52.84a10.43,10.43,0,0,1-5,1.29h0A10.48,10.48,0,0,1,20.72,43.65V37"/><path class="cls-2" d="M25.65,45.25a6,6,0,0,1-.3-1.86V37.27a5.84,5.84,0,0,1,5.85-5.84h0a5.84,5.84,0,0,1,2.51.56"/><path class="cls-2" d="M37,37.27v6.12a5.85,5.85,0,0,1-5.84,5.85h0"/><line class="cls-2" x1="31.2" y1="36.3" x2="31.2" y2="44.37"/><rect class="cls-2" x="4.6" y="63.61" width="57.82" height="6.63" rx="3.32"/></g></g></svg>