<svg xmlns="http://www.w3.org/2000/svg" viewBox="0 0 69.29 69.29"><defs><style>.cls-1{fill:none;stroke:#000;stroke-linejoin:round;stroke-width:3px;}</style></defs><title>Asset 10</title><g id="Layer_2" data-name="Layer 2"><g id="Layer_2-2" data-name="Layer 2"><rect class="cls-1" x="15.97" y="15.97" width="37.35" height="37.35" rx="4.62"/><rect class="cls-1" x="21.62" y="21.62" width="26.04" height="26.04" rx="1.77"/><path class="cls-1" d="M23.8,1.5h0a2.69,2.69,0,0,1,2.69,2.69V16a0,0,0,0,1,0,0H21.1a0,0,0,0,1,0,0V4.19A2.69,2.69,0,0,1,23.8,1.5Z"/><path class="cls-1" d="M34.64,1.5h0a2.69,2.69,0,0,1,2.69,2.69V16a0,0,0,0,1,0,0H31.95a0,0,0,0,1,0,0V4.19A2.69,2.69,0,0,1,34.64,1.5Z"/><path class="cls-1" d="M45.49,1.5h0a2.69,2.69,0,0,1,2.69,2.69V16a0,0,0,0,1,0,0H42.79a0,0,0,0,1,0,0V4.19A2.69,2.69,0,0,1,45.49,1.5Z"/><path class="cls-1" d="M45.49,53.32h0A2.69,2.69,0,0,1,48.18,56V67.79a0,0,0,0,1,0,0H42.79a0,0,0,0,1,0,0V56A2.69,2.69,0,0,1,45.49,53.32Z" transform="translate(90.98 121.1) rotate(180)"/><path class="cls-1" d="M34.64,53.32h0A2.69,2.69,0,0,1,37.34,56V67.79a0,0,0,0,1,0,0H31.95a0,0,0,0,1,0,0V56A2.69,2.69,0,0,1,34.64,53.32Z" transform="translate(69.29 121.1) rotate(180)"/><path class="cls-1" d="M23.8,53.32h0A2.69,2.69,0,0,1,26.49,56V67.79a0,0,0,0,1,0,0H21.1a0,0,0,0,1,0,0V56A2.69,2.69,0,0,1,23.8,53.32Z" transform="translate(47.6 121.1) rotate(180)"/><path class="cls-1" d="M60.55,16.56h0a2.69,2.69,0,0,1,2.69,2.69V31a0,0,0,0,1,0,0H57.86a0,0,0,0,1,0,0V19.26A2.69,2.69,0,0,1,60.55,16.56Z" transform="translate(84.35 -36.75) rotate(90)"/><path class="cls-1" d="M60.55,27.41h0a2.69,2.69,0,0,1,2.69,2.69V41.88a0,0,0,0,1,0,0H57.86a0,0,0,0,1,0,0V30.1A2.69,2.69,0,0,1,60.55,27.41Z" transform="translate(95.19 -25.91) rotate(90)"/><path class="cls-1" d="M60.55,38.25h0a2.69,2.69,0,0,1,2.69,2.69V52.72a0,0,0,0,1,0,0H57.86a0,0,0,0,1,0,0V40.95A2.69,2.69,0,0,1,60.55,38.25Z" transform="translate(106.04 -15.06) rotate(90)"/><path class="cls-1" d="M8.73,38.25h0a2.69,2.69,0,0,1,2.69,2.69V52.72a0,0,0,0,1,0,0H6a0,0,0,0,1,0,0V40.95a2.69,2.69,0,0,1,2.69-2.69Z" transform="translate(-36.75 54.22) rotate(-90)"/><path class="cls-1" d="M8.73,27.41h0a2.69,2.69,0,0,1,2.69,2.69V41.88a0,0,0,0,1,0,0H6a0,0,0,0,1,0,0V30.1A2.69,2.69,0,0,1,8.73,27.41Z" transform="translate(-25.91 43.38) rotate(-90)"/><path class="cls-1" d="M8.73,16.56h0a2.69,2.69,0,0,1,2.69,2.69V31a0,0,0,0,1,0,0H6a0,0,0,0,1,0,0V19.26a2.69,2.69,0,0,1,2.69-2.69Z" transform="translate(-15.06 32.53) rotate(-90)"/></g></g></svg>