<svg xmlns="http://www.w3.org/2000/svg" viewBox="0 0 63.27 72.72"><defs><style>.cls-1,.cls-2{fill:none;stroke:#000;stroke-linejoin:round;stroke-width:3px;}.cls-1{stroke-linecap:round;}</style></defs><title>Asset 18</title><g id="Layer_2" data-name="Layer 2"><g id="Layer_2-2" data-name="Layer 2"><path class="cls-1" d="M36.15,16.83a6.2,6.2,0,0,0-9,0"/><path class="cls-1" d="M39.57,11A12.44,12.44,0,0,0,23.7,11"/><path class="cls-1" d="M43,5.37a18.56,18.56,0,0,0-22.69,0"/><path class="cls-2" d="M8.65,25.42h46a3.7,3.7,0,0,1,3.7,3.7V60.77a0,0,0,0,1,0,0H5a0,0,0,0,1,0,0V29.11A3.7,3.7,0,0,1,8.65,25.42Z"/><path class="cls-2" d="M1.5,60.77H61.77a0,0,0,0,1,0,0V64a7.19,7.19,0,0,1-7.19,7.19H8.69A7.19,7.19,0,0,1,1.5,64V60.77A0,0,0,0,1,1.5,60.77Z"/><polygon class="cls-2" points="38.67 66 24.6 66 23.6 60.77 39.67 60.77 38.67 66"/><circle class="cls-2" cx="15.4" cy="44.29" r="3.33"/><circle class="cls-2" cx="39.74" cy="37.63" r="3.33"/><circle class="cls-2" cx="43.63" cy="50.34" r="3.33"/><polyline class="cls-2" points="18.73 44.3 24.73 44.3 24.73 60.77"/><polyline class="cls-2" points="36.41 37.63 30.62 37.63 30.62 25.42"/><line class="cls-2" x1="46.96" y1="50.34" x2="58.31" y2="50.34"/></g></g></svg>