<svg xmlns="http://www.w3.org/2000/svg" viewBox="0 0 57.76 66.07"><defs><style>.cls-1,.cls-2{fill:none;stroke:#000;stroke-linejoin:round;stroke-width:3px;}.cls-2{stroke-linecap:round;}</style></defs><title>Asset 31</title><g id="Layer_2" data-name="Layer 2"><g id="Layer_2-2" data-name="Layer 2"><circle cx="20.98" cy="57.53" r="3.36"/><path class="cls-1" d="M40.45,47.1V58.64a5.92,5.92,0,0,1-5.93,5.93H7.43A5.93,5.93,0,0,1,1.5,58.64V7.43A5.94,5.94,0,0,1,7.43,1.5H34.52a5.93,5.93,0,0,1,5.93,5.93V19"/><polygon class="cls-1" points="27.4 6.68 14.55 6.68 12.78 1.5 29.18 1.5 27.4 6.68"/><path class="cls-1" d="M21,19H53.39a2.86,2.86,0,0,1,2.86,2.86v22.4a2.86,2.86,0,0,1-2.86,2.86H21a0,0,0,0,1,0,0V19A0,0,0,0,1,21,19Z"/><path class="cls-2" d="M35.74,38.06h3.53a2.22,2.22,0,0,0,2.22-2.23V33H35.74v-2.8A2.23,2.23,0,0,1,38,28h3.52"/><line class="cls-2" x1="38.62" y1="28.01" x2="38.62" y2="25.06"/><line class="cls-2" x1="38.62" y1="41.01" x2="38.62" y2="38.06"/><line class="cls-2" x1="20.98" y1="15.84" x2="20.98" y2="50.23"/></g></g></svg>