<svg xmlns="http://www.w3.org/2000/svg" viewBox="0 0 41.95 66.07"><defs><style>.cls-1{fill:none;stroke:#000;stroke-linejoin:round;stroke-width:3px;}</style></defs><title>Asset 14</title><g id="Layer_2" data-name="Layer 2"><g id="Layer_2-2" data-name="Layer 2"><circle cx="20.98" cy="57.53" r="3.36"/><rect class="cls-1" x="1.5" y="1.5" width="38.95" height="63.07" rx="5.93"/><polygon class="cls-1" points="27.4 6.68 14.55 6.68 12.78 1.5 29.18 1.5 27.4 6.68"/><path class="cls-1" d="M29.74,47.58H12.21A2.57,2.57,0,0,1,9.65,45V21.54A2.57,2.57,0,0,1,12.21,19H25a2.56,2.56,0,0,1,2.11,1.12l4.79,7a2.62,2.62,0,0,1,.45,1.46V45A2.57,2.57,0,0,1,29.74,47.58Z"/><rect class="cls-1" x="15.15" y="30.12" width="11.66" height="11.66"/><line class="cls-1" x1="15.15" y1="35.95" x2="26.81" y2="35.95"/><line class="cls-1" x1="20.98" y1="30.12" x2="20.98" y2="41.78"/></g></g></svg>