<svg xmlns="http://www.w3.org/2000/svg" viewBox="0 0 56.13 75.25"><defs><style>.cls-1,.cls-2{fill:none;stroke:#000;stroke-linejoin:round;stroke-width:3px;}.cls-1{stroke-linecap:round;}</style></defs><title>Asset 25</title><g id="Layer_2" data-name="Layer 2"><g id="Layer_2-2" data-name="Layer 2"><path class="cls-1" d="M45.07,31.85a10.63,10.63,0,0,0,0-13.13"/><path class="cls-1" d="M51.56,34.68a15.91,15.91,0,0,0,0-18.79"/><path class="cls-1" d="M11.06,31.85a10.63,10.63,0,0,1,0-13.13"/><path class="cls-1" d="M4.57,34.68a15.91,15.91,0,0,1,0-18.79"/><rect class="cls-2" x="17.94" y="1.5" width="20.25" height="47.57" rx="2.65"/><rect class="cls-2" x="24.69" y="49.07" width="6.75" height="17.43"/><circle class="cls-2" cx="28.07" cy="11.51" r="4.58"/><circle class="cls-2" cx="28.07" cy="25.29" r="4.58"/><circle class="cls-2" cx="28.07" cy="39.07" r="4.58"/><path class="cls-1" d="M15.07,66.5h26a3.67,3.67,0,0,1,3.67,3.67v3.58a0,0,0,0,1,0,0H11.4a0,0,0,0,1,0,0V70.17A3.67,3.67,0,0,1,15.07,66.5Z"/></g></g></svg>