<svg xmlns="http://www.w3.org/2000/svg" viewBox="0 0 36.25 72.32"><defs><style>.cls-1,.cls-2{fill:none;stroke:#000;stroke-linejoin:round;stroke-width:3px;}.cls-2{stroke-linecap:round;}</style></defs><title>Asset 13</title><g id="Layer_2" data-name="Layer 2"><g id="Layer_2-2" data-name="Layer 2"><rect class="cls-1" x="1.5" y="20.04" width="33.25" height="50.79" rx="5.95" transform="translate(36.25 90.86) rotate(180)"/><path class="cls-1" d="M7,1.5h22.3a0,0,0,0,1,0,0V17.61A2.42,2.42,0,0,1,26.85,20H9.4A2.42,2.42,0,0,1,7,17.61V1.5a0,0,0,0,1,0,0Z" transform="translate(36.25 21.54) rotate(180)"/><rect x="20.01" y="7.64" width="4.86" height="4.86" transform="translate(44.88 20.14) rotate(180)"/><rect x="11.38" y="7.64" width="4.86" height="4.86" transform="translate(27.63 20.14) rotate(180)"/><line class="cls-2" x1="27.18" y1="52.5" x2="9.07" y2="52.5"/><circle class="cls-2" cx="18.12" cy="61.66" r="3.97"/></g></g></svg>