<svg xmlns="http://www.w3.org/2000/svg" viewBox="0 0 63.86 75.55"><defs><style>.cls-1{fill:none;stroke:#000;stroke-linecap:round;stroke-linejoin:round;stroke-width:3px;}</style></defs><title>Asset 28</title><g id="Layer_2" data-name="Layer 2"><g id="Layer_2-2" data-name="Layer 2"><path class="cls-1" d="M36.44,16.83a6.19,6.19,0,0,0-9,0"/><path class="cls-1" d="M39.86,11A12.42,12.42,0,0,0,24,11"/><path class="cls-1" d="M43.28,5.37a18.58,18.58,0,0,0-22.7,0"/><path class="cls-1" d="M20.84,60H5.14A3.64,3.64,0,0,1,1.5,56.37V38.16a3.64,3.64,0,0,1,3.64-3.64H58.71a3.64,3.64,0,0,1,3.65,3.64V56.37A3.64,3.64,0,0,1,58.71,60H43"/><path class="cls-1" d="M12.8,23.8H51.05a1.66,1.66,0,0,1,1.66,1.66v9.05a0,0,0,0,1,0,0H11.14a0,0,0,0,1,0,0V25.46A1.66,1.66,0,0,1,12.8,23.8Z"/><line class="cls-1" x1="16.89" y1="51.87" x2="46.96" y2="51.87"/><path class="cls-1" d="M20.84,51.87H43a0,0,0,0,1,0,0v20a2.22,2.22,0,0,1-2.22,2.22H23.06a2.22,2.22,0,0,1-2.22-2.22v-20a0,0,0,0,1,0,0Z"/><line class="cls-1" x1="7.39" y1="40.3" x2="16.07" y2="40.3"/></g></g></svg>