<svg xmlns="http://www.w3.org/2000/svg" viewBox="0 0 62.04 55.46"><defs><style>.cls-1{fill:none;stroke:#000;stroke-linecap:round;stroke-linejoin:round;stroke-width:3px;}</style></defs><title>Asset 22</title><g id="Layer_2" data-name="Layer 2"><g id="Layer_2-2" data-name="Layer 2"><rect class="cls-1" x="23.03" y="1.5" width="37.5" height="52.46" rx="16.07"/><rect class="cls-1" x="37.6" y="10.92" width="8.38" height="14.13" rx="4.19"/><line class="cls-1" x1="23.03" y1="34.46" x2="60.54" y2="34.46"/><line class="cls-1" x1="41.79" y1="25.05" x2="41.79" y2="34.46"/><line class="cls-1" x1="41.79" y1="10.92" x2="41.79" y2="1.5"/><rect class="cls-1" x="1.5" y="29.96" width="13.43" height="9.96" rx="0.98"/><path class="cls-1" d="M4.89,22.8h6.64a1,1,0,0,1,1,1V30a0,0,0,0,1,0,0H3.91a0,0,0,0,1,0,0V23.78A1,1,0,0,1,4.89,22.8Z"/></g></g></svg>