<svg xmlns="http://www.w3.org/2000/svg" viewBox="0 0 87.04 71.38"><defs><style>.cls-1{fill:none;stroke:#000;stroke-linecap:round;stroke-linejoin:round;stroke-width:3px;}</style></defs><title>Asset 20</title><g id="Layer_2" data-name="Layer 2"><g id="Layer_2-2" data-name="Layer 2"><path class="cls-1" d="M48,16.83a6.19,6.19,0,0,0-9,0"/><path class="cls-1" d="M51.45,11a12.42,12.42,0,0,0-15.86,0"/><path class="cls-1" d="M54.87,5.37a18.58,18.58,0,0,0-22.7,0"/><path class="cls-1" d="M29.21,28.52H57.82a0,0,0,0,1,0,0V40.41a7.07,7.07,0,0,1-7.07,7.07H36.29a7.07,7.07,0,0,1-7.07-7.07V28.52A0,0,0,0,1,29.21,28.52Z"/><rect class="cls-1" x="57.82" y="28.52" width="10.89" height="6.64"/><path class="cls-1" d="M68.71,28.52H79a0,0,0,0,1,0,0V39.45a5.14,5.14,0,0,1-5.14,5.14h0a5.14,5.14,0,0,1-5.14-5.14V28.52a0,0,0,0,1,0,0Z"/><rect class="cls-1" x="18.32" y="28.52" width="10.89" height="6.64" transform="translate(47.54 63.68) rotate(-180)"/><path class="cls-1" d="M13.18,28.52h0a5.14,5.14,0,0,1,5.14,5.14V44.59a0,0,0,0,1,0,0H8a0,0,0,0,1,0,0V33.66a5.14,5.14,0,0,1,5.14-5.14Z" transform="translate(26.36 73.11) rotate(180)"/><rect class="cls-1" x="39.82" y="47.48" width="7.39" height="9.43"/><rect class="cls-1" x="32.11" y="56.91" width="22.82" height="12.96" rx="2.62"/><circle class="cls-1" cx="43.52" cy="63.39" r="2.89"/><rect class="cls-1" x="10.13" y="16.41" width="6.11" height="12.11"/><line class="cls-1" x1="1.5" y1="16.41" x2="24.86" y2="16.41"/><rect class="cls-1" x="70.8" y="16.41" width="6.11" height="12.11"/><line class="cls-1" x1="62.18" y1="16.41" x2="85.54" y2="16.41"/></g></g></svg>