<svg xmlns="http://www.w3.org/2000/svg" viewBox="0 0 70.07 69.82"><defs><style>.cls-1,.cls-2{fill:none;stroke:#000;stroke-linejoin:round;stroke-width:3px;}.cls-2{stroke-linecap:round;}</style></defs><title>Asset 19</title><g id="Layer_2" data-name="Layer 2"><g id="Layer_2-2" data-name="Layer 2"><rect class="cls-1" x="27.75" y="1.5" width="14.57" height="5.37"/><polyline class="cls-1" points="32.12 17.23 32.12 6.87 37.95 6.87 37.95 17.23"/><circle class="cls-1" cx="35.04" cy="21.41" r="5.1"/><path class="cls-2" d="M29.94,21.41l-8,5.83a3.11,3.11,0,0,0-.21,4.3l6,7"/><path class="cls-2" d="M40.13,21.41l8,5.83a3.11,3.11,0,0,1,.21,4.3l-6,7"/><rect class="cls-2" x="1.5" y="52.25" width="67.07" height="16.07" rx="8.04"/><circle class="cls-2" cx="51.96" cy="60.28" r="3.32"/><circle class="cls-2" cx="35.04" cy="60.28" r="3.32"/><circle class="cls-2" cx="18.11" cy="60.28" r="3.32"/><line class="cls-2" x1="1.5" y1="60.28" x2="7.63" y2="60.28"/><line class="cls-2" x1="62.44" y1="60.28" x2="68.57" y2="60.28"/><line class="cls-2" x1="13.07" y1="1.5" x2="57" y2="1.5"/></g></g></svg>