<svg xmlns="http://www.w3.org/2000/svg" viewBox="0 0 71.04 65.74"><defs><style>.cls-1,.cls-2{fill:none;stroke:#000;stroke-linejoin:round;stroke-width:3px;}.cls-1{stroke-linecap:round;}</style></defs><title>Asset 1</title><g id="Layer_2" data-name="Layer 2"><g id="Layer_2-2" data-name="Layer 2"><path class="cls-1" d="M30.68,9.63a8.57,8.57,0,0,1,10.64,0"/><path class="cls-1" d="M28.39,4A12.87,12.87,0,0,1,43.61,4"/><rect class="cls-2" x="1.5" y="18.24" width="68.04" height="45.99" rx="3.2"/><rect class="cls-2" x="9.22" y="25.46" width="41.34" height="31.56" rx="1.7"/><circle class="cls-2" cx="60.05" cy="31.45" r="3.77"/><circle class="cls-2" cx="60.05" cy="45.01" r="3.77"/><path class="cls-2" d="M18.91,52a11.58,11.58,0,1,1,23.15,0"/><path class="cls-1" d="M17,52H44a1.39,1.39,0,0,1,1.39,1.39v3.73a0,0,0,0,1,0,0H15.61a0,0,0,0,1,0,0V53.4A1.39,1.39,0,0,1,17,52Z"/><line class="cls-1" x1="30.49" y1="40.44" x2="30.49" y2="36.72"/></g></g></svg>