<svg xmlns="http://www.w3.org/2000/svg" viewBox="0 0 72.61 63.76"><defs><style>.cls-1{fill:none;stroke:#000;stroke-linecap:round;stroke-linejoin:round;stroke-width:3px;}</style></defs><title>Asset 21</title><g id="Layer_2" data-name="Layer 2"><g id="Layer_2-2" data-name="Layer 2"><path class="cls-1" d="M32.78,27.44V44.7a5.53,5.53,0,0,1-5.53,5.53H7A5.53,5.53,0,0,1,1.5,44.7V7A5.54,5.54,0,0,1,7,1.5H27.25a5.53,5.53,0,0,1,4.46,2.26"/><line class="cls-1" x1="12.98" y1="45.2" x2="21.3" y2="45.2"/><polygon class="cls-1" points="22.64 7.3 11.64 7.3 9.77 1.5 24.51 1.5 22.64 7.3"/><path class="cls-1" d="M51.56,13.53h14a5.54,5.54,0,0,1,5.53,5.53V56.73a5.53,5.53,0,0,1-5.53,5.53H45.36a5.52,5.52,0,0,1-5.53-5.53V28.53"/><line class="cls-1" x1="51.31" y1="57.23" x2="59.63" y2="57.23"/><polyline class="cls-1" points="51.56 13.53 62.84 13.53 60.97 19.33 50.94 19.33"/><polygon class="cls-1" points="38.26 15.33 43.36 10.73 38.26 6.13 38.26 15.33"/><polygon class="cls-1" points="38.26 24.52 43.36 19.92 38.26 15.33 38.26 24.52"/><polyline class="cls-1" points="33.17 19.92 38.26 15.33 33.17 10.73"/><circle class="cls-1" cx="38.26" cy="15.33" r="13.3"/></g></g></svg>